<?xml version="1.0" encoding="utf-8"?><svg viewBox="0 0 38 38" xmlns="http://www.w3.org/2000/svg" xmlns:xlink="http://www.w3.org/1999/xlink"><style>:root>svg{display:none}:root>svg:target{display:block}</style><svg fill="none" viewBox="0 0 24 24" id="cart" xmlns="http://www.w3.org/2000/svg"><g fill="currentColor"><path d="M21 4H2v2h2.3l3.28 9a3 3 0 002.82 2H19v-2h-8.6a1 1 0 01-.94-.66L9 13h9.28a2 2 0 001.92-1.45L22 5.27A1 1 0 0021.27 4 .84.84 0 0021 4zm-2.75 7h-10L6.43 6h13.24l-1.42 5zM10.5 21a1.5 1.5 0 100-3 1.5 1.5 0 000 3zM16.5 21a1.5 1.5 0 100-3 1.5 1.5 0 000 3z"/></g></svg><svg fill="none" viewBox="0 0 24 24" id="heart" xmlns="http://www.w3.org/2000/svg"><path d="M12 4.595a5.904 5.904 0 00-6.278-1.1 5.942 5.942 0 00-1.931 1.3c-2.353 2.363-2.352 6.059.002 8.412l7.332 7.332a.995.995 0 001.32.382.99.99 0 00.347-.299l7.415-7.415c2.354-2.354 2.354-6.049-.002-8.416a5.938 5.938 0 00-4.209-1.754c-1.48 0-2.906.556-3.996 1.558zm6.791 1.61c1.563 1.571 1.564 4.025.002 5.588L12 18.586l-6.793-6.793c-1.562-1.563-1.561-4.017-.002-5.584a3.953 3.953 0 012.799-1.172c1.045 0 2.035.416 2.789 1.17l.5.5a1 1 0 001.414 0l.5-.5c1.512-1.509 4.074-1.505 5.584-.002z" fill="currentColor"/></svg><svg fill="none" viewBox="0 0 36 37" id="instagramm" xmlns="http://www.w3.org/2000/svg"><g clip-path="url(#cclip0_41_378)" fill="currentColor"><path d="M35.99 18.737c0 1.38.01 2.76 0 4.141 0 .76 0 1.529-.022 2.287-.042 1.223-.094 2.445-.357 3.647-.337 1.538-.948 2.961-1.916 4.226-1.127 1.465-2.6 2.434-4.348 3.003-.81.264-1.642.411-2.484.517-1.463.179-2.937.21-4.4.231-2.537.042-5.073.01-7.61.021-1.116 0-2.232 0-3.348-.031-1.21-.032-2.42-.106-3.61-.39-1.905-.453-3.61-1.286-4.99-2.698-.852-.864-1.473-1.886-1.905-3.025-.358-.948-.568-1.939-.684-2.95a30.85 30.85 0 01-.2-2.793l-.063-1.834a40.527 40.527 0 010-2.53c0-.505.042-1 0-1.506a18.703 18.703 0 01-.042-1.086c.02-1.117.02-2.223.063-3.34.01-.517 0-1.044.021-1.56.032-.759.021-1.528.074-2.287C.284 9.126.62 7.534 1.41 6.06c.916-1.697 2.19-3.046 3.926-3.931.958-.485 1.968-.78 3.021-.938a32.142 32.142 0 012.684-.285c.737-.042 1.485-.052 2.232-.073C15.894.789 18.505.81 21.126.81c1.137 0 2.274.01 3.411.031 1.221.032 2.442.106 3.632.38 1.547.358 2.957.99 4.2 1.98 1.378 1.097 2.294 2.509 2.842 4.185.305.917.463 1.865.568 2.824.095.854.137 1.718.168 2.582.011.4.011.8.021 1.19.043 1.582.021 3.162.021 4.754zM3.358 22.573c-.021.685.01 1.328.032 1.96.031.77.073 1.539.126 2.308.053.632.105 1.254.274 1.865.558 2.034 1.81 3.415 3.8 4.12.863.306 1.758.412 2.652.507.884.095 1.78.116 2.663.137.748.02 1.506.031 2.253.031 2.095 0 4.19.021 6.274-.01 1.294-.021 2.579-.021 3.873-.127.674-.052 1.337-.084 2-.21 2.569-.464 4.495-2.35 5.032-4.912.137-.663.19-1.327.221-2.002.042-1.17.084-2.34.116-3.51.01-.463.01-.937.02-1.4.022-.791.011-1.571.064-2.361.021-.274-.095-.517-.084-.78.01-.422.01-.843.02-1.265v-2.076a76.627 76.627 0 00-.094-2.708c-.042-.76-.084-1.518-.179-2.277a6.547 6.547 0 00-.663-2.223c-.853-1.666-2.221-2.656-4.021-3.088-1.232-.295-2.495-.37-3.758-.422-.895-.031-1.8-.052-2.695-.052-2.273 0-4.557-.022-6.831.01-1.39.021-2.78.021-4.169.158-.663.063-1.326.127-1.979.285-1.873.432-3.273 1.475-4.084 3.235-.526 1.16-.737 2.382-.79 3.646-.03.833-.041 1.665-.062 2.498-.01.559 0 1.117-.021 1.676-.032 1.159-.011 2.318-.032 3.477-.021 1.18-.01 2.361.021 3.489l.021.02z"/><path d="M27.263 18.82a9.223 9.223 0 01-9.452 9.233c-5.169-.106-9.21-4.342-9.032-9.675.169-4.942 4.284-8.905 9.463-8.831 5.095.074 9.032 4.3 9.021 9.274zm-9.22-5.985c-3.148-.053-5.97 2.54-5.99 5.933-.01 3.32 2.684 6.007 5.968 5.997 3.39-.01 5.948-2.793 5.948-5.955 0-3.33-2.769-5.996-5.937-5.964l.01-.011zM25.421 9.2c-.02-1.17.99-2.193 2.242-2.172 1.2.021 2.127.96 2.127 2.203 0 1.212-.98 2.17-2.2 2.17-1.18 0-2.169-1.011-2.169-2.202z"/></g><defs><clipPath id="cclip0_41_378"><path fill="#fff" transform="translate(0 .8)" d="M0 0h36v36H0z"/></clipPath></defs></svg><svg fill="none" viewBox="0 0 24 24" id="search" xmlns="http://www.w3.org/2000/svg"><path d="M10 18a7.952 7.952 0 004.897-1.688l4.396 4.396 1.414-1.414-4.396-4.396A7.952 7.952 0 0018 10c0-4.411-3.589-8-8-8s-8 3.589-8 8 3.589 8 8 8zm0-14c3.309 0 6 2.691 6 6s-2.691 6-6 6-6-2.691-6-6 2.691-6 6-6z" fill="currentColor"/></svg><svg fill="none" viewBox="0 0 24 24" id="user" xmlns="http://www.w3.org/2000/svg"><path d="M12 2a5 5 0 100 10 5 5 0 000-10zm0 8a3 3 0 110-6 3 3 0 010 6zm9 11v-1a7 7 0 00-7-7h-4a7 7 0 00-7 7v1h2v-1a5 5 0 015-5h4a5 5 0 015 5v1h2z" fill="currentColor"/></svg><svg fill="none" viewBox="0 0 38 38" id="whatsapp" xmlns="http://www.w3.org/2000/svg"><g clip-path="url(#fclip0_41_375)" fill="currentColor"><path d="M19.436 36.844c-.248 0-.496.006-.743 0-.435-.016-.87-.06-1.3-.104a17.334 17.334 0 01-1.584-.24 17.994 17.994 0 01-4.568-1.535 31.638 31.638 0 01-.611-.306.395.395 0 00-.341-.027c-.05.016-.094.027-.144.044-1.31.415-2.62.835-3.93 1.25-1.893.601-3.791 1.208-5.685 1.803-.099.033-.214.126-.302.022-.072-.082.016-.186.044-.279.82-2.414 1.64-4.823 2.454-7.237l.66-1.956a3.53 3.53 0 00.072-.224.302.302 0 00-.027-.256c-.028-.044-.05-.088-.072-.126a18.037 18.037 0 01-1.69-3.83c-.291-.939-.5-1.9-.643-2.872-.171-1.175-.204-2.35-.154-3.53.027-.704.115-1.409.236-2.108.231-1.343.6-2.643 1.123-3.9A18.317 18.317 0 015.17 6.61a18.671 18.671 0 013.94-3.518A18.43 18.43 0 0117.373.11c.974-.12 1.954-.126 2.933-.099.375.011.749.05 1.123.093.54.06 1.079.142 1.613.246 1.21.23 2.383.584 3.517 1.06 1.453.6 2.806 1.37 4.061 2.31a18.406 18.406 0 014.888 5.484 17.904 17.904 0 012.174 5.834c.176.956.28 1.923.302 2.9.011.553-.005 1.099-.027 1.65-.017.443-.066.88-.127 1.317a18.13 18.13 0 01-.55 2.595 18.45 18.45 0 01-5.421 8.614 18.123 18.123 0 01-4.079 2.775 18.301 18.301 0 01-5.052 1.671c-.633.11-1.271.186-1.91.24-.468.039-.93.033-1.392.044h.01zm.198-33.686c-.605.01-1.03.01-1.453.054-.495.05-.985.104-1.47.191a15.09 15.09 0 00-3.94 1.268A15.12 15.12 0 009.43 6.85a15.467 15.467 0 00-2.807 3.146 15.104 15.104 0 00-2.202 5.123 16.258 16.258 0 00-.368 3.305c0 .317.027.628.044.94.033.66.12 1.31.242 1.955.407 2.098 1.233 4.015 2.444 5.774.22.322.23.262.093.672-.534 1.584-1.073 3.168-1.612 4.752-.033.104-.072.202-.1.311-.033.12.011.164.138.126.088-.022.17-.05.253-.076.545-.175 1.095-.345 1.64-.52 1.162-.365 2.323-.731 3.479-1.108a.57.57 0 01.528.065 15.19 15.19 0 004.045 1.808 14.99 14.99 0 003.33.552c.99.055 1.981.027 2.961-.115a15.81 15.81 0 002.515-.568c2.796-.89 5.152-2.436 7.062-4.648a15.087 15.087 0 003.67-9.084c.04-.678.034-1.355-.027-2.032a17.985 17.985 0 00-.198-1.546 14.821 14.821 0 00-1.2-3.726 15.177 15.177 0 00-3.6-4.828 14.958 14.958 0 00-2.476-1.825c-2.416-1.42-5.025-2.13-7.656-2.146h.006z"/><path d="M13.26 9.384c.094.005.17 0 .248.016.237.05.473.055.71.05.418-.017.693.18.875.54.143.279.242.58.352.874.38 1 .749 2.01 1.134 3.01.127.328.116.628-.055.929a3.915 3.915 0 01-.545.77c-.253.273-.5.557-.77.82a.695.695 0 00-.116.136c-.116.164-.154.338-.066.53.033.07.06.147.1.213.692 1.245 1.524 2.392 2.575 3.37a11.71 11.71 0 002.57 1.84c.369.192.743.372 1.112.558.027.011.055.027.082.038.292.126.562.099.787-.142.243-.256.48-.519.721-.786.303-.339.6-.678.881-1.038a.86.86 0 01.187-.186.59.59 0 01.528-.115c.292.071.562.197.826.334 1.068.557 2.13 1.125 3.198 1.688.016.01.033.021.055.027.363.17.49.459.451.841a6.189 6.189 0 01-.38 1.633c-.115.29-.28.541-.495.76-.517.535-1.14.906-1.816 1.196-.396.17-.804.268-1.233.306-.138.01-.275.032-.407.065-.347.082-.688.028-1.03-.038-.616-.115-1.205-.317-1.788-.53a40.327 40.327 0 01-2.361-.961 13.707 13.707 0 01-2.802-1.71 19.263 19.263 0 01-3.247-3.267 23.55 23.55 0 01-1.47-2.07c-.313-.497-.655-.983-.93-1.507-.49-.94-.886-1.918-.985-2.977-.137-1.42.182-2.732 1.079-3.879.231-.295.495-.562.77-.819A1.897 1.897 0 0113.26 9.4v-.016z"/></g><defs><clipPath id="fclip0_41_375"><path fill="#fff" transform="translate(.2)" d="M0 0h37.8v37.8H0z"/></clipPath></defs></svg></svg>