<svg width="217" height="46" viewBox="0 0 217 46" fill="none" xmlns="http://www.w3.org/2000/svg">
<g id="Group 111">
<g id="Group">
<path id="Vector" d="M67.1982 29.8679V9.55788H69.8552V27.374H82.126V29.8679H67.1982Z" fill="white"/>
<path id="Vector_2" d="M86.1296 29.8679V9.55788H88.7866V29.8679H86.1296Z" fill="white"/>
<path id="Vector_3" d="M93.334 23.6923L96.0397 23.1955C96.2788 24.6806 97.0139 25.797 98.2494 26.5498C99.4849 27.3026 101.168 27.6816 103.289 27.6816C107.713 27.6816 109.927 26.5549 109.927 24.2965C109.927 23.2877 109.559 22.5503 108.824 22.0791C108.089 21.6131 106.836 21.2649 105.064 21.0396L100.632 20.6708C99.5291 20.5275 98.5815 20.3277 97.7933 20.0666C97.0006 19.8054 96.3098 19.4674 95.7164 19.0424C95.123 18.6173 94.6846 18.0847 94.3923 17.4497C94.1001 16.8147 93.9584 16.0619 93.9584 15.1913C93.9584 13.3529 94.72 11.9036 96.2478 10.8487C97.7755 9.79375 99.9454 9.2714 102.762 9.2714C108.328 9.2714 111.481 11.2993 112.216 15.3603L109.51 15.8263C109.24 14.459 108.554 13.4348 107.451 12.7537C106.349 12.0726 104.768 11.7346 102.713 11.7346C100.658 11.7346 99.1793 12.0163 98.1652 12.5796C97.1512 13.1429 96.6419 13.9315 96.6419 14.9506C96.6419 15.9697 97.0139 16.6355 97.7578 17.0605C98.5018 17.4856 99.7328 17.8133 101.455 18.054L105.999 18.4944C108.284 18.7965 109.967 19.3701 111.038 20.2099C112.11 21.0498 112.65 22.3249 112.65 24.0354C112.65 26.0377 111.853 27.5586 110.254 28.5982C108.66 29.6378 106.322 30.155 103.244 30.155C97.3239 30.155 94.0248 28.0042 93.3384 23.6974L93.334 23.6923Z" fill="white"/>
<path id="Vector_4" d="M117.3 29.8679V9.55788H119.957V29.8679H117.3Z" fill="white"/>
<path id="Vector_5" d="M124.819 19.7434C124.819 16.5529 125.771 14.0078 127.679 12.1181C129.583 10.2233 132.178 9.28106 135.46 9.28106C138.227 9.28106 140.455 9.86486 142.146 11.0376C143.834 12.2103 144.932 13.9105 145.441 16.1484L142.673 16.7578C142.297 15.1242 141.504 13.8798 140.3 13.0245C139.091 12.1693 137.479 11.7443 135.464 11.7443C132.94 11.7443 130.987 12.451 129.606 13.8695C128.224 15.288 127.529 17.2443 127.529 19.7485C127.529 22.2527 128.215 24.1987 129.592 25.5967C130.969 26.9948 132.927 27.6912 135.464 27.6912C137.563 27.6912 139.233 27.2508 140.473 26.3751C141.712 25.4994 142.479 24.2089 142.762 22.5087L145.468 23.1437C145.025 25.4482 143.953 27.1945 142.253 28.3774C140.552 29.5604 138.289 30.1544 135.464 30.1544C132.108 30.1544 129.495 29.2224 127.626 27.3583C125.757 25.4943 124.823 22.9542 124.823 19.7485L124.819 19.7434Z" fill="white"/>
<path id="Vector_6" d="M149.949 29.8679V9.55788H152.606V18.1254H166.604V9.55788H169.261V29.8679H166.604V20.6193H152.606V29.8679H149.949Z" fill="white"/>
<path id="Vector_7" d="M175.603 29.8679V9.55788H178.233V19.5132L190.074 9.55788H193.71L182.772 18.8782L194.405 29.8679H190.522L180.664 20.6757L178.229 22.7292V29.8679H175.598H175.603Z" fill="white"/>
<path id="Vector_8" d="M213.973 29.8679L211.489 24.5011H200.383L197.899 29.8679H195.096L204.625 9.55788H207.331L216.883 29.8679H213.982H213.973ZM201.481 22.0942H210.36L205.914 12.4922L201.481 22.0942Z" fill="white"/>
</g>
<g id="Group_2">
<path id="Vector_9" d="M67.1982 43.5263V36.8536H68.1415L71.0376 41.4728L73.9159 36.8536H74.8503V43.5263H74.0355V38.1133L71.414 42.3536H70.6523L68.0263 38.139V43.5263H67.2027H67.1982Z" fill="white"/>
<path id="Vector_10" d="M82.214 43.5263L81.3992 41.7647H77.7503L76.9355 43.5263H76.0144L79.1452 36.8536H80.0353L83.1749 43.5263H82.2228H82.214ZM78.109 40.9709H81.0272L79.5659 37.8163L78.109 40.9709Z" fill="white"/>
<path id="Vector_11" d="M84.3311 43.5263V36.8536H89.366V37.6781H85.2034V43.5263H84.3311Z" fill="white"/>
<path id="Vector_12" d="M94.8876 43.5263L94.0728 41.7647H90.4239L89.6091 43.5263H88.688L91.8188 36.8536H92.7089L95.8485 43.5263H94.8964H94.8876ZM90.7826 40.9709H93.7008L92.2395 37.8163L90.7826 40.9709Z" fill="white"/>
<path id="Vector_13" d="M102.678 41.6624C102.678 42.3025 102.408 42.789 101.863 43.1219C101.319 43.4548 100.535 43.6238 99.5162 43.6238C98.4977 43.6238 97.8069 43.4497 97.2932 43.1065C96.7795 42.7634 96.4784 42.2411 96.3943 41.5497L97.2844 41.3603C97.3419 41.8673 97.5501 42.2462 97.9088 42.4971C98.2674 42.7481 98.8033 42.8761 99.5162 42.8761C100.229 42.8761 100.778 42.7686 101.155 42.5484C101.536 42.3333 101.726 42.0209 101.726 41.6214C101.726 41.222 101.584 40.9403 101.305 40.756C101.026 40.5716 100.592 40.4795 100.003 40.4795H98.2896V39.7164H99.9723C100.482 39.7164 100.88 39.6294 101.168 39.4501C101.456 39.2709 101.602 38.9995 101.602 38.6359C101.602 38.2723 101.425 37.9957 101.075 37.8011C100.725 37.6065 100.207 37.5144 99.5162 37.5144C98.2099 37.5144 97.4881 37.9906 97.3464 38.9431L96.4961 38.7332C96.722 37.4171 97.7272 36.7616 99.5162 36.7616C100.499 36.7616 101.243 36.9152 101.752 37.2173C102.262 37.5195 102.514 37.965 102.514 38.5539C102.514 39.3067 102.111 39.8086 101.31 40.0595C102.222 40.249 102.678 40.7816 102.678 41.6624Z" fill="white"/>
<path id="Vector_14" d="M104.268 43.5263V36.8536H105.118V42.2511L109.688 36.8536H110.538V43.5263H109.688V38.139L105.118 43.5263H104.268Z" fill="white"/>
<path id="Vector_15" d="M112.611 43.5263V36.8536H113.483V39.6701H118.084V36.8536H118.957V43.5263H118.084V40.4895H113.483V43.5263H112.611Z" fill="white"/>
<path id="Vector_16" d="M123.509 43.5263V36.8536H124.381V39.6701H128.982V36.8536H129.855V43.5263H128.982V40.4895H124.381V43.5263H123.509Z" fill="white"/>
<path id="Vector_17" d="M131.94 43.5263V36.8536H132.79V42.2511L137.36 36.8536H138.21V43.5263H137.36V38.139L132.79 43.5263H131.94Z" fill="white"/>
<path id="Vector_18" d="M143.599 40.0952L140.411 43.5263H139.286L142.532 40.044L139.401 36.8536H140.495L143.595 40.0952H143.599ZM143.652 43.5263V36.8536H144.511V43.5263H143.652ZM144.551 40.0798L147.673 36.8536H148.776L145.627 40.0286L148.869 43.5263H147.731L144.551 40.0798Z" fill="white"/>
<path id="Vector_19" d="M149.945 43.5263V36.8536H150.818V39.6701H155.419V36.8536H156.291V43.5263H155.419V40.4895H150.818V43.5263H149.945Z" fill="white"/>
<path id="Vector_20" d="M158.376 43.5263V36.8536H163.699V37.6525H159.24V39.706H163.265V40.5049H159.24V42.7274H163.757V43.5263H158.376Z" fill="white"/>
<path id="Vector_21" d="M165.284 43.5263V36.8536H170.319V37.6781H166.157V43.5263H165.284Z" fill="white"/>
<path id="Vector_22" d="M174.513 43.6184C173.392 43.6184 172.524 43.3112 171.9 42.7018C171.276 42.0924 170.966 41.2525 170.966 40.1976C170.966 39.1426 171.276 38.3028 171.9 37.6831C172.524 37.0635 173.392 36.7562 174.508 36.7562C175.624 36.7562 176.492 37.0635 177.116 37.678C177.741 38.2925 178.051 39.1324 178.051 40.1924C178.051 41.2525 177.741 42.0719 177.116 42.6915C176.492 43.3112 175.624 43.6133 174.508 43.6133L174.513 43.6184ZM174.513 42.8093C175.367 42.8093 176.023 42.5789 176.479 42.118C176.93 41.6571 177.161 41.0169 177.161 40.1976C177.161 39.3782 176.935 38.733 176.479 38.2669C176.027 37.8009 175.372 37.5705 174.513 37.5705C173.654 37.5705 172.994 37.8009 172.538 38.2669C172.081 38.733 171.856 39.3782 171.856 40.1976C171.856 41.0169 172.081 41.6571 172.538 42.118C172.994 42.5789 173.649 42.8093 174.513 42.8093Z" fill="white"/>
<path id="Vector_23" d="M182.108 43.5263V36.8536H187.559V37.6525H182.958V39.5421H186.018C186.625 39.5421 187.103 39.7214 187.457 40.0798C187.812 40.4383 187.989 40.9299 187.989 41.5547C187.989 42.1795 187.816 42.6557 187.466 43.0039C187.116 43.3522 186.638 43.5263 186.031 43.5263H182.117H182.108ZM185.916 40.3256H182.958V42.753H185.916C186.297 42.753 186.594 42.6506 186.797 42.4457C187.001 42.2409 187.107 41.9439 187.107 41.5547C187.107 41.1655 187.001 40.8582 186.789 40.6431C186.576 40.4332 186.284 40.3256 185.912 40.3256H185.916Z" fill="white"/>
<path id="Vector_24" d="M189.565 43.5263V36.8536H194.888V37.6525H190.428V39.706H194.454V40.5049H190.428V42.7274H194.945V43.5263H189.565Z" fill="white"/>
<path id="Vector_25" d="M195.539 42.7633C195.959 42.712 196.26 42.5482 196.442 42.2768C196.615 42.0309 196.73 41.6161 196.792 41.0426C196.854 40.469 196.898 39.4755 196.929 38.0621L196.956 36.8536H202.314V43.5263H201.441V37.6781H197.797L197.788 38.1646C197.757 39.7009 197.691 40.7968 197.598 41.4523C197.505 42.1078 197.332 42.5994 197.08 42.9322C196.907 43.1576 196.708 43.3214 196.482 43.4239C196.252 43.5263 195.964 43.5877 195.614 43.6082L195.543 42.7684L195.539 42.7633Z" fill="white"/>
<path id="Vector_26" d="M204.399 43.5263V36.8536H205.272V39.199H208.093C208.748 39.199 209.271 39.3936 209.66 39.7828C210.05 40.172 210.24 40.6995 210.24 41.3601C210.24 42.0207 210.045 42.5533 209.66 42.9425C209.275 43.3317 208.752 43.5263 208.093 43.5263H204.399ZM207.986 39.9979H205.272V42.7325H207.986C208.407 42.7325 208.739 42.6147 208.987 42.3741C209.231 42.1334 209.355 41.7954 209.355 41.3601C209.355 40.9248 209.231 40.5817 208.987 40.3461C208.744 40.1106 208.407 39.9928 207.986 39.9928V39.9979Z" fill="white"/>
<path id="Vector_27" d="M216.874 43.5263H216.002V41.017H214.249L212.065 43.5263H210.985L213.195 40.9914C212.557 40.9914 212.052 40.807 211.671 40.4332C211.29 40.0593 211.1 39.5626 211.1 38.943C211.1 38.3233 211.286 37.7907 211.654 37.4169C212.021 37.043 212.521 36.8536 213.15 36.8536H216.874V43.5263ZM213.288 40.2335H216.002V37.6422H213.288C212.885 37.6422 212.566 37.7549 212.34 37.9853C212.114 38.2158 212.003 38.5333 212.003 38.943C212.003 39.3526 212.114 39.6701 212.34 39.8955C212.566 40.1208 212.88 40.2335 213.288 40.2335Z" fill="white"/>
</g>
<g id="Group_3">
<path id="Vector_28" d="M42.8801 0.0496254C40.6584 0.0496254 41.6458 5.02809 37.5186 12.8878C36.1757 15.4417 34.8362 17.5275 33.7007 19.1261C31.2915 17.2421 27.4275 14.9469 22.8494 14.9469C18.2712 14.9469 14.5225 17.1736 12.1067 19.0386C10.9843 17.4514 9.66784 15.3961 8.35133 12.8878C4.22408 5.02809 5.21146 0.0496254 2.99314 0.0496254C-0.893847 0.0496254 -1.09461 18.3573 2.97669 29.2048C2.97669 29.2048 3.67115 30.2934 3.34531 28.2076C3.02276 26.1218 2.51262 19.4306 5.14893 17.9348C7.78523 16.4352 12.9229 23.4499 13.7095 24.3025C14.6113 25.2807 15.9805 23.9257 15.1478 22.8523C15.1478 22.8523 14.0518 21.7181 12.4852 19.5638C13.5088 18.8178 15.5263 17.4742 18.574 16.6483C20.1999 16.2068 21.4374 16.1535 22.1549 16.1763C22.6223 16.1916 23.0896 16.1916 23.557 16.1763C24.2745 16.1535 25.5087 16.2068 27.1379 16.6483C30.2942 17.5047 32.3513 18.9206 33.3387 19.6438C31.8016 21.7486 30.7353 22.8523 30.7353 22.8523C29.9026 23.9219 31.2717 25.2769 32.1735 24.3025C32.9602 23.4499 38.0978 16.4352 40.7341 17.9348C43.3705 19.4344 42.8636 26.1218 42.5378 28.2076C42.2152 30.2934 42.9064 29.2048 42.9064 29.2048C46.9777 18.3611 46.7769 0.0496254 42.8899 0.0496254H42.8801Z" fill="white"/>
<path id="Vector_29" d="M36.0212 25.4163C35.0503 24.244 33.7371 23.9015 34.3855 24.7579C35.0339 25.6143 35.6822 26.1129 37.7492 30.8211C38.516 32.5643 38.7793 33.8508 38.8122 34.7757C38.8484 35.8452 38.2922 36.8044 37.4497 37.2535C34.0761 39.0538 31.5287 43.488 31.1864 44.6299C30.8177 45.8592 31.5089 45.1132 31.5089 45.1132C35.7415 39.0652 39.2862 38.8026 40.1386 39.2936C40.2637 39.3659 40.5171 39.503 40.6389 39.5753C41.9521 40.3517 41.804 38.6922 41.804 38.6922C41.2478 30.9315 36.0212 25.4201 36.0212 25.4201V25.4163Z" fill="white"/>
<path id="Vector_30" d="M26.0125 41.6584C25.5616 41.2892 24.6927 40.901 23.0109 40.901C21.3291 40.901 20.4602 41.2892 20.0093 41.6584C19.6538 41.9515 19.4925 42.4768 19.6242 42.9601C19.9237 44.0563 20.9604 44.7148 21.8096 45.084C22.583 45.4189 23.4388 45.4189 24.2122 45.084C25.0614 44.7148 26.0981 44.0563 26.3976 42.9601C26.5293 42.4768 26.368 41.9515 26.0125 41.6584Z" fill="white"/>
<path id="Vector_31" d="M8.20922 37.2504C7.36666 36.8013 6.81043 35.8459 6.84664 34.7726C6.87955 33.8477 7.14285 32.5612 7.90972 30.818C9.97663 26.1098 10.625 25.6112 11.2734 24.7548C11.9218 23.8984 10.6086 24.2448 9.63763 25.4133C9.63763 25.4133 4.4078 30.9246 3.85487 38.6853C3.85487 38.6853 3.70676 40.3448 5.01998 39.5684C5.14505 39.4961 5.39848 39.359 5.52025 39.2867C6.37269 38.7957 9.91739 39.0583 14.15 45.1063C14.15 45.1063 14.8444 45.8562 14.4725 44.623C14.1302 43.4811 11.5828 39.0469 8.20922 37.2466V37.2504Z" fill="white"/>
<path id="Vector_32" d="M33.0886 32.0129C33.5725 30.6922 33.6646 29.6264 33.4342 29.5008C33.2071 29.3752 33.1709 30.0832 32.4008 31.0423C31.6339 32.0015 30.7025 31.6437 29.0568 31.9596C27.4145 32.2755 25.9071 35.8457 25.9071 35.8457C25.7787 36.1312 25.8841 36.4204 26.1276 36.2149C26.3251 36.0474 26.2724 35.8571 27.0952 35.4955C27.9181 35.1339 29.6789 35.5184 30.6761 35.0959C31.6701 34.6734 32.6015 33.3336 33.0886 32.0129Z" fill="white"/>
<path id="Vector_33" d="M19.6854 35.8498C19.6854 35.8498 18.178 32.2797 16.5357 31.9638C14.8933 31.6478 13.9619 32.0056 13.1917 31.0465C12.4249 30.0873 12.3887 29.3794 12.1583 29.505C11.9312 29.6306 12.0201 30.7001 12.5039 32.017C12.9877 33.3378 13.9191 34.6775 14.9164 35.1C15.9103 35.5225 17.6745 35.1419 18.4973 35.4997C19.3201 35.8575 19.2674 36.0478 19.4649 36.219C19.7085 36.4246 19.8138 36.1353 19.6854 35.8498Z" fill="white"/>
</g>
</g>
</svg>
