<svg width="36" height="37" viewBox="0 0 36 37" fill="none" xmlns="http://www.w3.org/2000/svg">
<g id="_&#208;&#160;&#208;&#142;&#208;&#160;&#194;&#187;&#208;&#160;&#209;&#149;&#208;&#160;&#226;&#132;&#150;_1" clip-path="url(#clip0_41_378)">
<path id="Vector" d="M35.9895 18.7367C35.9895 20.1173 36.0001 21.4978 35.9895 22.8784C35.9895 23.6372 35.9895 24.4065 35.9685 25.1653C35.9264 26.3878 35.8738 27.6102 35.6106 28.8116C35.2738 30.3503 34.6632 31.773 33.6948 33.0376C32.5685 34.5025 31.0948 35.472 29.3475 36.0411C28.5369 36.3046 27.7054 36.4521 26.8633 36.5575C25.4001 36.7367 23.9264 36.7683 22.4633 36.7893C19.9265 36.8315 17.3896 36.7999 14.8528 36.8104C13.737 36.8104 12.6212 36.8104 11.5054 36.7788C10.2949 36.7472 9.08439 36.6734 7.89492 36.3889C5.98967 35.9357 4.28441 35.1032 2.90547 33.691C2.05284 32.8268 1.43179 31.8046 1.00021 30.6664C0.642319 29.7179 0.431793 28.7273 0.316004 27.7156C0.200215 26.7882 0.147584 25.8608 0.116005 24.9229C0.0949524 24.3116 0.0738998 23.7004 0.0528473 23.0892C0.0212685 22.2461 0.0317947 21.403 0.0528473 20.5599C0.0528473 20.0541 0.0949524 19.5587 0.0528473 19.0529C0.0317947 18.6946 0.0107422 18.3257 0.0107422 17.9674C0.0317947 16.8503 0.0317947 15.7438 0.0738998 14.6267C0.0844261 14.1103 0.0738998 13.5834 0.0949524 13.067C0.126531 12.3082 0.116005 11.5389 0.168636 10.7801C0.284425 9.12552 0.621266 7.53419 1.41074 6.05879C2.32652 4.36207 3.6002 3.01313 5.33704 2.12789C6.29493 1.64312 7.30545 1.34804 8.35808 1.18996C9.24228 1.05295 10.137 0.968646 11.0423 0.905415C11.7791 0.86326 12.5265 0.852722 13.2738 0.831644C15.8949 0.78949 18.5054 0.810567 21.1264 0.810567C22.2633 0.810567 23.4001 0.821106 24.537 0.842183C25.758 0.873799 26.9791 0.947569 28.1685 1.22157C29.7159 1.57988 31.1264 2.2122 32.3685 3.20283C33.7474 4.29884 34.6632 5.71102 35.2106 7.38665C35.5159 8.30351 35.6738 9.25199 35.779 10.211C35.8738 11.0646 35.9159 11.9288 35.9474 12.793C35.958 13.1934 35.958 13.5939 35.9685 13.9838C36.0106 15.5646 35.9895 17.1454 35.9895 18.7367ZM3.3581 22.5728C3.33704 23.2578 3.36862 23.9006 3.38968 24.533C3.42125 25.3023 3.46336 26.0716 3.51599 26.8409C3.56862 27.4732 3.62125 28.095 3.78967 28.7062C4.34757 30.7402 5.60019 32.1207 7.58966 32.8268C8.45281 33.1325 9.34755 33.2378 10.2423 33.3327C11.1265 33.4275 12.0212 33.4486 12.9054 33.4697C13.6528 33.4908 14.4107 33.5013 15.158 33.5013C17.2528 33.5013 19.3475 33.5224 21.4317 33.4908C22.7264 33.4697 24.0106 33.4697 25.3054 33.3643C25.9791 33.3116 26.6422 33.28 27.3054 33.1535C29.8738 32.6898 31.8001 30.8034 32.3369 28.2425C32.4738 27.5786 32.5264 26.9147 32.558 26.2402C32.6001 25.0704 32.6422 23.9006 32.6738 22.7309C32.6843 22.2672 32.6843 21.7929 32.6948 21.3292C32.7159 20.5388 32.7053 19.759 32.758 18.9686C32.779 18.6946 32.6632 18.4522 32.6738 18.1887C32.6843 17.7672 32.6843 17.3456 32.6948 16.9241C32.6948 16.2285 32.6948 15.5435 32.6948 14.848C32.6738 13.9417 32.6527 13.0353 32.6001 12.1396C32.558 11.3808 32.5159 10.622 32.4211 9.86322C32.3264 9.08337 32.1159 8.33513 31.758 7.63958C30.9054 5.97448 29.5369 4.98385 27.7369 4.55177C26.5054 4.25669 25.2422 4.18292 23.9791 4.13023C23.0843 4.09861 22.1791 4.07753 21.2843 4.07753C19.0107 4.07753 16.7265 4.05646 14.4528 4.08807C13.0633 4.10915 11.6739 4.10915 10.2844 4.24615C9.62123 4.30938 8.95807 4.37261 8.30544 4.53069C6.43177 4.96278 5.03177 6.0061 4.22125 7.76604C3.69494 8.92529 3.48441 10.1478 3.43178 11.4124C3.4002 12.2449 3.38968 13.0775 3.36862 13.91C3.3581 14.4686 3.36862 15.0271 3.34757 15.5857C3.31599 16.7449 3.33704 17.9042 3.31599 19.0634C3.29494 20.2437 3.30547 21.4241 3.33704 22.5517L3.3581 22.5728Z" fill="currentColor"/>
<path id="Vector_2" d="M27.2633 18.8209C27.2422 24.0375 23.0212 28.1581 17.8107 28.0528C12.6423 27.9474 8.60021 23.7108 8.77916 18.3783C8.94758 13.4357 13.0634 9.4732 18.2423 9.54697C23.337 9.62074 27.2738 13.8467 27.2633 18.8209ZM18.0423 12.835C14.8949 12.7823 12.0739 15.3748 12.0528 18.7682C12.0423 22.0879 14.737 24.7752 18.0212 24.7647C21.4107 24.7542 23.9686 21.972 23.9686 18.8104C23.9686 15.4802 21.2002 12.8139 18.0318 12.8456L18.0423 12.835Z" fill="currentColor"/>
<path id="Vector_3" d="M25.4212 9.19916C25.4002 8.02938 26.4107 7.00714 27.6633 7.02821C28.8633 7.04929 29.7896 7.98723 29.7896 9.23078C29.7896 10.4427 28.8107 11.4017 27.5896 11.4017C26.4107 11.4017 25.4212 10.39 25.4212 9.19916Z" fill="currentColor"/>
</g>
<defs>
<clipPath id="clip0_41_378">
<rect width="35.9999" height="35.9999" fill="white" transform="translate(0 0.799927)"/>
</clipPath>
</defs>
</svg>
