<svg width="38" height="38" viewBox="0 0 38 38" fill="none" xmlns="http://www.w3.org/2000/svg">
<g id="_&#208;&#160;&#208;&#142;&#208;&#160;&#194;&#187;&#208;&#160;&#209;&#149;&#208;&#160;&#226;&#132;&#150;_1" clip-path="url(#clip0_41_375)">
<path id="Vector" d="M19.4357 36.8443C19.1881 36.8443 18.9404 36.8497 18.6927 36.8443C18.2579 36.8279 17.8231 36.7842 17.3938 36.7405C16.86 36.6859 16.3371 36.6039 15.8087 36.5001C14.2182 36.1942 12.6936 35.6808 11.2406 34.9652C11.037 34.8669 10.8333 34.7631 10.6297 34.6593C10.5196 34.5992 10.4041 34.5883 10.2885 34.632C10.2389 34.6484 10.1949 34.6593 10.1454 34.6757C8.83548 35.0908 7.52558 35.5114 6.21569 35.9266C4.32239 36.5274 2.42359 37.1338 0.530299 37.7292C0.431231 37.7619 0.315652 37.8548 0.227592 37.751C0.156043 37.6691 0.244103 37.5653 0.271622 37.4724C1.09168 35.0581 1.91174 32.6491 2.7263 30.2348C2.94645 29.5847 3.1666 28.9292 3.38675 28.2792C3.41427 28.2027 3.43629 28.1317 3.4583 28.0553C3.48582 27.9679 3.48032 27.8805 3.43078 27.7985C3.40326 27.7548 3.38125 27.7111 3.35923 27.6729C2.64925 26.4602 2.08236 25.1875 1.66958 23.8437C1.37788 22.9042 1.16874 21.9428 1.02564 20.9705C0.855021 19.7961 0.821998 18.6217 0.871532 17.4418C0.899051 16.7371 0.987111 16.0325 1.10819 15.3333C1.33935 13.9896 1.7081 12.6895 2.23096 11.4332C2.96296 9.67426 3.93713 8.06831 5.16997 6.60985C6.31475 5.24971 7.63015 4.08075 9.11067 3.09206C11.0315 1.81932 13.1229 0.928946 15.385 0.431867C16.0399 0.284382 16.7059 0.186059 17.3718 0.109585C18.346 -0.0105875 19.3257 -0.0160499 20.3053 0.0112621C20.6796 0.0221869 21.0538 0.0604238 21.4281 0.104123C21.9675 0.164209 22.5068 0.246146 23.0407 0.349931C24.2515 0.579352 25.4238 0.934409 26.5576 1.40964C28.0106 2.0105 29.3645 2.7807 30.6194 3.72024C32.6172 5.2224 34.2519 7.0523 35.5067 9.20449C36.5689 11.0235 37.3009 12.9681 37.6807 15.0383C37.8568 15.9943 37.9614 16.9611 37.9834 17.9389C37.9944 18.4906 37.9779 19.0368 37.9559 19.5885C37.9394 20.031 37.8899 20.468 37.8293 20.905C37.7082 21.7844 37.5266 22.6475 37.2789 23.4996C36.8276 25.0673 36.1782 26.5476 35.3251 27.946C34.3784 29.5083 33.2172 30.8902 31.8577 32.1138C30.6249 33.2227 29.2655 34.1513 27.7794 34.8887C26.1778 35.6862 24.4937 36.2543 22.727 36.5602C22.094 36.6695 21.4556 36.7459 20.8172 36.8006C20.3494 36.8388 19.887 36.8333 19.4247 36.8443H19.4357ZM19.6339 3.15761C19.0285 3.16853 18.6047 3.16853 18.1809 3.21223C17.6855 3.26139 17.1957 3.31602 16.7114 3.40342C15.3354 3.64376 14.0255 4.06983 12.7707 4.67069C11.5598 5.24971 10.4481 5.97621 9.42988 6.85019C8.35115 7.77334 7.41 8.82212 6.62297 9.99654C5.57175 11.5697 4.83424 13.2794 4.42146 15.1203C4.17929 16.2073 4.06922 17.3107 4.05271 18.425C4.05271 18.7419 4.08023 19.0532 4.09674 19.3646C4.12976 20.0255 4.21782 20.6755 4.3389 21.3201C4.74618 23.4177 5.57175 25.335 6.78258 27.0939C7.00273 27.4162 7.01373 27.3561 6.87614 27.7657C6.34227 29.3498 5.8029 30.9339 5.26354 32.518C5.23051 32.6218 5.19199 32.7201 5.16447 32.8294C5.13145 32.9496 5.17548 32.9933 5.30206 32.955C5.39012 32.9332 5.47268 32.9059 5.55524 32.8786C6.10011 32.7038 6.65048 32.5344 7.19536 32.3596C8.35665 31.9936 9.51795 31.6277 10.6737 31.2508C10.8719 31.1852 11.026 31.2071 11.2021 31.3163C12.457 32.1193 13.8109 32.7147 15.2474 33.1244C16.3371 33.4357 17.4489 33.616 18.5771 33.6761C19.5678 33.7307 20.5585 33.7034 21.5382 33.5614C22.3913 33.4357 23.2333 33.2555 24.0534 32.9933C26.8493 32.1029 29.2049 30.557 31.1147 28.3448C32.5677 26.6678 33.5969 24.756 34.2188 22.6256C34.5381 21.5277 34.7252 20.4024 34.7857 19.2608C34.8243 18.5834 34.8188 17.9061 34.7582 17.2288C34.7087 16.7098 34.6536 16.1909 34.5601 15.6829C34.3234 14.3883 33.9271 13.1483 33.3603 11.9575C32.4852 10.1112 31.2853 8.49984 29.7608 7.12878C28.9958 6.44051 28.1757 5.82326 27.2841 5.30433C24.8679 3.88411 22.2592 3.174 19.6284 3.15761H19.6339Z" fill="black"/>
<path id="Vector_2" d="M13.2603 9.38403C13.3539 9.3895 13.4309 9.38403 13.508 9.40042C13.7446 9.44958 13.9813 9.45504 14.2179 9.44958C14.6362 9.43319 14.9114 9.62984 15.093 9.99036C15.2361 10.2689 15.3352 10.5694 15.4453 10.8643C15.825 11.864 16.1938 12.8745 16.5791 13.8741C16.7056 14.2019 16.6946 14.5023 16.524 14.8027C16.3699 15.0759 16.1993 15.3381 15.9792 15.5729C15.726 15.8461 15.4783 16.1301 15.2086 16.3923C15.1646 16.4305 15.1261 16.4797 15.093 16.5289C14.9775 16.6927 14.9389 16.8675 15.027 17.0587C15.06 17.1297 15.0875 17.2062 15.1261 17.2717C15.8195 18.5172 16.6506 19.6643 17.7018 20.6421C18.4779 21.3631 19.3254 21.9913 20.2721 22.4829C20.6408 22.6741 21.0151 22.8543 21.3838 23.04C21.4114 23.051 21.4389 23.0674 21.4664 23.0783C21.7581 23.2039 22.0278 23.1766 22.2534 22.9363C22.4956 22.6795 22.7323 22.4173 22.9744 22.1497C23.2771 21.811 23.5743 21.4723 23.855 21.1118C23.9101 21.0408 23.9706 20.9753 24.0422 20.9261C24.1963 20.8059 24.3724 20.7622 24.5705 20.8114C24.8622 20.8824 25.1319 21.008 25.3961 21.1446C26.4638 21.7018 27.526 22.2698 28.5938 22.8325C28.6103 22.8434 28.6268 22.8543 28.6488 22.8598C29.0121 23.0291 29.1387 23.3186 29.1001 23.701C29.0451 24.2636 28.924 24.8044 28.7204 25.3343C28.6048 25.6238 28.4397 25.875 28.225 26.0935C27.7077 26.6288 27.0857 27.0003 26.4088 27.2898C26.0125 27.4591 25.6052 27.5575 25.1759 27.5957C25.0383 27.6066 24.9008 27.6285 24.7687 27.6612C24.4219 27.7432 24.0807 27.6886 23.7395 27.623C23.123 27.5083 22.5341 27.3062 21.9507 27.0932C21.1527 26.7982 20.3657 26.4759 19.5896 26.1318C18.5824 25.6784 17.6578 25.0994 16.7882 24.422C15.5664 23.4661 14.4986 22.3682 13.541 21.1555C13.0126 20.4891 12.5228 19.8008 12.0715 19.0853C11.7578 18.5882 11.4165 18.102 11.1413 17.5776C10.6515 16.6381 10.2552 15.6603 10.1562 14.6006C10.0186 13.1804 10.3378 11.8694 11.2349 10.7223C11.4661 10.4274 11.7302 10.1597 12.0054 9.90296C12.3632 9.57522 12.787 9.41681 13.2603 9.40042V9.38403Z" fill="black"/>
</g>
<defs>
<clipPath id="clip0_41_375">
<rect width="37.7998" height="37.7998" fill="white" transform="translate(0.200195)"/>
</clipPath>
</defs>
</svg>
