<svg width="323" height="68" viewBox="0 0 323 68" fill="none" xmlns="http://www.w3.org/2000/svg">
<path d="M99.8418 44.3033V14.127H103.789V40.5978H122.021V44.3033H99.8418Z" fill="#C31718"/>
<path d="M127.97 44.3033V14.127H131.917V44.3033H127.97Z" fill="#C31718"/>
<path d="M138.674 35.1277L142.694 34.3896C143.049 36.5961 144.141 38.2549 145.977 39.3733C147.813 40.4918 150.313 41.0549 153.464 41.0549C160.037 41.0549 163.327 39.381 163.327 36.0255C163.327 34.5266 162.781 33.4309 161.689 32.7309C160.597 32.0385 158.735 31.5211 156.103 31.1863L149.517 30.6385C147.878 30.4255 146.47 30.1287 145.299 29.7407C144.122 29.3526 143.095 28.8504 142.214 28.2189C141.332 27.5874 140.681 26.7961 140.246 25.8526C139.812 24.9091 139.602 23.7906 139.602 22.4971C139.602 19.7656 140.733 17.6123 143.003 16.0449C145.273 14.4775 148.497 13.7014 152.681 13.7014C160.952 13.7014 165.636 16.7145 166.729 22.7482L162.709 23.4406C162.307 21.4091 161.287 19.8873 159.649 18.8754C158.011 17.8634 155.662 17.3612 152.609 17.3612C149.556 17.3612 147.359 17.7797 145.852 18.6167C144.345 19.4536 143.589 20.6254 143.589 22.1395C143.589 23.6537 144.141 24.6428 145.247 25.2743C146.352 25.9059 148.181 26.3928 150.741 26.7504L157.491 27.4048C160.886 27.8537 163.386 28.7059 164.978 29.9537C166.571 31.2015 167.373 33.0961 167.373 35.6374C167.373 38.6125 166.189 40.8723 163.814 42.4168C161.445 43.9614 157.971 44.7299 153.399 44.7299C144.602 44.7299 139.7 41.5342 138.68 35.1353L138.674 35.1277Z" fill="#C31718"/>
<path d="M174.282 44.3033V14.127H178.23V44.3033H174.282Z" fill="#C31718"/>
<path d="M185.453 29.2605C185.453 24.5202 186.868 20.7387 189.703 17.9311C192.533 15.1158 196.388 13.7158 201.264 13.7158C205.376 13.7158 208.685 14.5832 211.199 16.3256C213.705 18.068 215.337 20.5941 216.094 23.9192L211.981 24.8246C211.422 22.3974 210.245 20.5485 208.455 19.2778C206.659 18.0072 204.264 17.3756 201.27 17.3756C197.52 17.3756 194.618 18.4256 192.566 20.5333C190.513 22.6409 189.48 25.5474 189.48 29.2681C189.48 32.9888 190.5 35.8801 192.546 37.9573C194.592 40.0345 197.5 41.0693 201.27 41.0693C204.389 41.0693 206.869 40.4149 208.711 39.1138C210.554 37.8127 211.692 35.8953 212.113 33.3692L216.133 34.3127C215.475 37.7367 213.883 40.3312 211.356 42.0889C208.83 43.8465 205.468 44.7291 201.27 44.7291C196.283 44.7291 192.401 43.3443 189.624 40.5747C186.848 37.8051 185.46 34.0312 185.46 29.2681L185.453 29.2605Z" fill="#C31718"/>
<path d="M222.791 44.3033V14.127H226.739V26.8564H247.537V14.127H251.484V44.3033H247.537V30.5619H226.739V44.3033H222.791Z" fill="#C31718"/>
<path d="M260.907 44.3033V14.127H264.815V28.9184L282.409 14.127H287.811L271.559 27.9749L288.844 44.3033H283.073L268.428 30.6456L264.809 33.6967V44.3033H260.901H260.907Z" fill="#C31718"/>
<path d="M317.918 44.3033L314.227 36.3293H297.725L294.034 44.3033H289.869L304.028 14.127H308.048L322.24 44.3033H317.931H317.918ZM299.357 32.7532H312.549L305.943 18.4868L299.357 32.7532Z" fill="#C31718"/>
<path d="M99.8418 64.5968V54.6826H101.243L105.546 61.5457L109.823 54.6826H111.211V64.5968H110V56.5544L106.105 62.8544H104.974L101.072 56.5924V64.5968H99.8484H99.8418Z" fill="#C31718"/>
<path d="M122.152 64.5968L120.941 61.9794H115.52L114.309 64.5968H112.941L117.592 54.6826H118.915L123.58 64.5968H122.165H122.152ZM116.053 60.8001H120.389L118.217 56.1131L116.053 60.8001Z" fill="#C31718"/>
<path d="M125.297 64.5968V54.6826H132.778V55.9076H126.594V64.5968H125.297Z" fill="#C31718"/>
<path d="M140.982 64.5968L139.771 61.9794H134.35L133.139 64.5968H131.771L136.422 54.6826H137.745L142.41 64.5968H140.995H140.982ZM134.883 60.8001H139.219L137.047 56.1131L134.883 60.8001Z" fill="#C31718"/>
<path d="M152.557 61.8275C152.557 62.7786 152.156 63.5014 151.346 63.996C150.537 64.4905 149.372 64.7416 147.859 64.7416C146.346 64.7416 145.32 64.4829 144.556 63.9731C143.793 63.4634 143.346 62.6873 143.221 61.6601L144.543 61.3786C144.629 62.1318 144.938 62.6949 145.471 63.0677C146.004 63.4405 146.8 63.6307 147.859 63.6307C148.919 63.6307 149.734 63.471 150.294 63.1438C150.859 62.8242 151.142 62.3601 151.142 61.7666C151.142 61.1731 150.932 60.7546 150.517 60.4807C150.103 60.2068 149.458 60.0699 148.583 60.0699H146.037V58.9362H148.537C149.294 58.9362 149.886 58.8068 150.313 58.5405C150.741 58.2742 150.958 57.8709 150.958 57.3307C150.958 56.7905 150.695 56.3796 150.175 56.0905C149.655 55.8013 148.886 55.6644 147.859 55.6644C145.918 55.6644 144.846 56.372 144.635 57.7872L143.372 57.4753C143.708 55.5198 145.201 54.5459 147.859 54.5459C149.32 54.5459 150.425 54.7742 151.182 55.2231C151.938 55.672 152.313 56.334 152.313 57.209C152.313 58.3274 151.715 59.0731 150.524 59.4459C151.879 59.7275 152.557 60.5188 152.557 61.8275Z" fill="#C31718"/>
<path d="M154.919 64.5968V54.6826H156.182V62.7022L162.972 54.6826H164.236V64.5968H162.972V56.5924L156.182 64.5968H154.919Z" fill="#C31718"/>
<path d="M167.315 64.5968V54.6826H168.611V58.8674H175.447V54.6826H176.743V64.5968H175.447V60.0848H168.611V64.5968H167.315Z" fill="#C31718"/>
<path d="M183.507 64.5968V54.6826H184.803V58.8674H191.639V54.6826H192.935V64.5968H191.639V60.0848H184.803V64.5968H183.507Z" fill="#C31718"/>
<path d="M196.033 64.5968V54.6826H197.297V62.7022L204.087 54.6826H205.35V64.5968H204.087V56.5924L197.297 64.5968H196.033Z" fill="#C31718"/>
<path d="M213.357 59.499L208.619 64.5968H206.948L211.771 59.4229L207.119 54.6826H208.744L213.35 59.499H213.357ZM213.436 64.5968V54.6826H214.712V64.5968H213.436ZM214.771 59.4761L219.41 54.6826H221.048L216.37 59.4L221.186 64.5968H219.495L214.771 59.4761Z" fill="#C31718"/>
<path d="M222.786 64.5968V54.6826H224.082V58.8674H230.918V54.6826H232.214V64.5968H230.918V60.0848H224.082V64.5968H222.786Z" fill="#C31718"/>
<path d="M235.313 64.5968V54.6826H243.221V55.8696H236.596V58.9207H242.576V60.1077H236.596V63.4099H243.307V64.5968H235.313Z" fill="#C31718"/>
<path d="M245.576 64.5968V54.6826H253.057V55.9076H246.873V64.5968H245.576Z" fill="#C31718"/>
<path d="M259.287 64.7336C257.623 64.7336 256.333 64.277 255.406 63.3716C254.478 62.4662 254.017 61.2183 254.017 59.6509C254.017 58.0835 254.478 56.8357 255.406 55.915C256.333 54.9944 257.623 54.5378 259.281 54.5378C260.939 54.5378 262.228 54.9944 263.156 55.9074C264.084 56.8205 264.544 58.0683 264.544 59.6433C264.544 61.2183 264.084 62.4357 263.156 63.3564C262.228 64.277 260.939 64.726 259.281 64.726L259.287 64.7336ZM259.287 63.5314C260.557 63.5314 261.531 63.189 262.209 62.5042C262.88 61.8194 263.222 60.8683 263.222 59.6509C263.222 58.4335 262.886 57.4748 262.209 56.7824C261.538 56.09 260.564 55.7476 259.287 55.7476C258.011 55.7476 257.031 56.09 256.353 56.7824C255.675 57.4748 255.34 58.4335 255.34 59.6509C255.34 60.8683 255.675 61.8194 256.353 62.5042C257.031 63.189 258.004 63.5314 259.287 63.5314Z" fill="#C31718"/>
<path d="M270.573 64.5968V54.6826H278.672V55.8696H271.836V58.6772H276.382C277.284 58.6772 277.994 58.9435 278.52 59.4761C279.047 60.0087 279.31 60.7392 279.31 61.6675C279.31 62.5957 279.053 63.3033 278.534 63.8207C278.014 64.3381 277.303 64.5968 276.402 64.5968H270.586H270.573ZM276.231 59.8414H271.836V63.4479H276.231C276.797 63.4479 277.237 63.2957 277.54 62.9914C277.843 62.687 278.001 62.2457 278.001 61.6675C278.001 61.0892 277.843 60.6327 277.527 60.3131C277.211 60.0011 276.777 59.8414 276.224 59.8414H276.231Z" fill="#C31718"/>
<path d="M281.652 64.5968V54.6826H289.56V55.8696H282.935V58.9207H288.916V60.1077H282.935V63.4099H289.646V64.5968H281.652Z" fill="#C31718"/>
<path d="M290.528 63.4631C291.153 63.387 291.6 63.1436 291.87 62.7403C292.126 62.3751 292.297 61.7588 292.39 60.9066C292.482 60.0544 292.547 58.5783 292.594 56.4783L292.633 54.6826H300.594V64.5968H299.298V55.9076H293.883L293.87 56.6305C293.824 58.9131 293.725 60.5414 293.587 61.5153C293.449 62.4892 293.192 63.2196 292.817 63.7142C292.561 64.049 292.265 64.2925 291.929 64.4446C291.587 64.5968 291.159 64.6881 290.639 64.7186L290.534 63.4707L290.528 63.4631Z" fill="#C31718"/>
<path d="M303.693 64.5968V54.6826H304.989V58.1674H309.18C310.154 58.1674 310.93 58.4566 311.509 59.0348C312.088 59.6131 312.371 60.3968 312.371 61.3783C312.371 62.3598 312.082 63.1512 311.509 63.7294C310.937 64.3077 310.16 64.5968 309.18 64.5968H303.693ZM309.022 59.3544H304.989V63.4175H309.022C309.647 63.4175 310.141 63.2425 310.509 62.8849C310.871 62.5272 311.055 62.0251 311.055 61.3783C311.055 60.7316 310.871 60.2218 310.509 59.8718C310.147 59.5218 309.647 59.3468 309.022 59.3468V59.3544Z" fill="#C31718"/>
<path d="M322.228 64.5968H320.932V60.8685H318.326L315.083 64.5968H313.477L316.76 60.8305C315.813 60.8305 315.063 60.5566 314.497 60.0011C313.931 59.4457 313.648 58.7076 313.648 57.787C313.648 56.8663 313.925 56.075 314.471 55.5196C315.017 54.9641 315.76 54.6826 316.695 54.6826H322.228V64.5968ZM316.899 59.7044H320.932V55.8544H316.899C316.3 55.8544 315.826 56.0218 315.491 56.3642C315.155 56.7065 314.991 57.1783 314.991 57.787C314.991 58.3957 315.155 58.8674 315.491 59.2022C315.826 59.537 316.293 59.7044 316.899 59.7044Z" fill="#C31718"/>
<path d="M63.7104 0C60.4096 0 61.8766 7.39691 55.7444 19.0747C53.7492 22.8693 51.759 25.9683 50.0719 28.3435C46.4923 25.5442 40.7513 22.1342 33.9492 22.1342C27.147 22.1342 21.5772 25.4424 17.9879 28.2134C16.3203 25.8552 14.3643 22.8015 12.4083 19.0747C6.27606 7.39691 7.74309 0 4.44716 0C-1.32806 0 -1.62636 27.2012 4.42271 43.3183C4.42271 43.3183 5.45452 44.9356 4.9704 41.8366C4.49117 38.7376 3.7332 28.7959 7.65018 26.5734C11.5672 24.3453 19.2006 34.7677 20.3694 36.0345C21.7092 37.4878 23.7435 35.4746 22.5063 33.8799C22.5063 33.8799 20.8779 32.1946 18.5502 28.9938C20.0711 27.8854 23.0687 25.8892 27.5969 24.662C30.0126 24.006 31.8513 23.9268 32.9174 23.9608C33.6118 23.9834 34.3062 23.9834 35.0006 23.9608C36.0666 23.9268 37.9004 24.006 40.321 24.662C45.0106 25.9344 48.0669 28.0381 49.534 29.1126C47.2503 32.2399 45.6659 33.8799 45.6659 33.8799C44.4287 35.469 46.463 37.4822 47.8029 36.0345C48.9716 34.7677 56.6051 24.3453 60.522 26.5734C64.439 28.8016 63.6859 38.7376 63.2018 41.8366C62.7226 44.9356 63.7495 43.3183 63.7495 43.3183C69.7986 27.2068 69.5003 0 63.7251 0H63.7104Z" fill="#C31718"/>
<path d="M53.5197 37.6895C52.0771 35.9477 50.1259 35.4387 51.0893 36.7112C52.0526 37.9836 53.016 38.7244 56.087 45.7198C57.2264 48.3098 57.6176 50.2212 57.6665 51.5954C57.7203 53.1845 56.8939 54.6096 55.642 55.2769C50.6296 57.9518 46.8447 64.54 46.3361 66.2366C45.7884 68.0632 46.8153 66.9548 46.8153 66.9548C53.104 57.9688 58.3707 57.5786 59.6372 58.3081C59.823 58.4155 60.1996 58.6191 60.3805 58.7266C62.3317 59.8802 62.1116 57.4146 62.1116 57.4146C61.2852 45.8838 53.5197 37.6951 53.5197 37.6951V37.6895Z" fill="#C31718"/>
<path d="M38.6488 61.8214C37.9788 61.2729 36.6878 60.696 34.189 60.696C31.6901 60.696 30.3991 61.2729 29.7292 61.8214C29.2011 62.2569 28.9615 63.0373 29.1571 63.7555C29.6021 65.3841 31.1424 66.3625 32.4041 66.911C33.5533 67.4087 34.8247 67.4087 35.9739 66.911C37.2355 66.3625 38.7759 65.3841 39.2209 63.7555C39.4165 63.0373 39.1769 62.2569 38.6488 61.8214Z" fill="#C31718"/>
<path d="M12.197 55.2722C10.9452 54.6049 10.1187 53.1855 10.1725 51.5908C10.2214 50.2166 10.6126 48.3051 11.752 45.7151C14.823 38.7197 15.7864 37.9789 16.7497 36.7065C17.7131 35.4341 15.7619 35.9487 14.3193 37.6848C14.3193 37.6848 6.54896 45.8734 5.72742 57.4042C5.72742 57.4042 5.50737 59.8699 7.45852 58.7162C7.64435 58.6088 8.02089 58.4052 8.20182 58.2977C9.46836 57.5682 14.735 57.9584 21.0237 66.9444C21.0237 66.9444 22.0555 68.0585 21.5029 66.2262C20.9943 64.5297 17.2094 57.9415 12.197 55.2666V55.2722Z" fill="#C31718"/>
<path d="M49.1624 47.4904C49.8813 45.5281 50.0182 43.9447 49.6759 43.758C49.3384 43.5714 49.2847 44.6233 48.1404 46.0484C47.001 47.4735 45.6171 46.9419 43.172 47.4113C40.7319 47.8806 38.4922 53.1851 38.4922 53.1851C38.3015 53.6093 38.458 54.0391 38.8198 53.7337C39.1132 53.4849 39.035 53.2021 40.2575 52.6649C41.48 52.1276 44.0963 52.6988 45.578 52.0711C47.0548 51.4434 48.4387 49.4528 49.1624 47.4904Z" fill="#C31718"/>
<path d="M29.2482 53.1912C29.2482 53.1912 27.0085 47.8867 24.5683 47.4174C22.1282 46.948 20.7443 47.4796 19.6 46.0545C18.4606 44.6294 18.4068 43.5775 18.0645 43.7642C17.7271 43.9508 17.8591 45.5399 18.5779 47.4965C19.2968 49.4589 20.6807 51.4495 22.1624 52.0772C23.6392 52.7049 26.2603 52.1394 27.4828 52.671C28.7053 53.2026 28.6271 53.4853 28.9205 53.7398C29.2824 54.0452 29.4389 53.6154 29.2482 53.1912Z" fill="#C31718"/>
</svg>
